# xmcd
#
# Track frame offsets: 
#        150
#        9625
#        19455
#        33503
#        45115
#        55372
#        64718
#        76759
#        87509
#        99595
#        109250
#        120360
#        130636
#        141430
#        152566
#        162505
#        173536
#        183448
#        194235
#        204857
#        215004
#        226168
#        235792
#        246433
#        256037
#        268186
#        276914
#        286710
#        297085
#        306240
#        320578
#        332590
#        342371
#        351723
#
# Disc length: 4803 seconds
#
# Revision: 1
# Processed by: cddbd v1.5.2PL0 Copyright (c) Steve Scherf et al.
# Submitted via: ExactAudioCopy v1.3
#
DISCID=f712c122
DTITLE=Speedy West and Jimmy Bryant - Bustin' Thru Flippin' The Lid
DYEAR=2013
DGENRE=Country
TTITLE0=Flippin' The Lid
TTITLE1=Stratosphere Boogie
TTITLE2=Jelly Beans Daddy
TTITLE3=Bryant's Boogie
TTITLE4=Lover
TTITLE5=Wild And Woolly West
TTITLE6=Hawaiian War Chant
TTITLE7=The Night Rider
TTITLE8=Ain't Nobody's Business But My Own (& Kay Starr)
TTITLE9=This Ain't The Blues
TTITLE10=Cotton Pickin'
TTITLE11=Bryant's Shuffle
TTITLE12=Steel Guitar Rag
TTITLE13=Totem Pole Dance
TTITLE14=Water Baby Blues
TTITLE15=On The Beach Of Waikiki
TTITLE16=Truck Driver's Ride
TTITLE17=Boogie Barn Dance
TTITLE18=Wild Card (& Tex Williams)
TTITLE19=Okie Boogie (& Ella Mae Morse)
TTITLE20=Jammin' With Jimmy
TTITLE21=Sand Canyon Swing
TTITLE22=Hop, Skip And Jump
TTITLE23=Yodeling Guitar
TTITLE24=I've Turned A Gadabout (& Eddie Kirk and Marilyn Tuttle)
TTITLE25=Space Man In Orbit
TTITLE26=Speedy's Special
TTITLE27=Swingin' On The Strings
TTITLE28=Speedin' West
TTITLE29=Pushin' The Blues
TTITLE30=Twice The Lovin' (In Half The Time) (& Jean Shepard)
TTITLE31=Pickin' Peppers
TTITLE32=Hillcrest (Opus 3)
TTITLE33=This Must Be The Place (& Betty Hutton)
EXTD=
EXTT0=
EXTT1=
EXTT2=
EXTT3=
EXTT4=
EXTT5=
EXTT6=
EXTT7=
EXTT8=
EXTT9=
EXTT10=
EXTT11=
EXTT12=
EXTT13=
EXTT14=
EXTT15=
EXTT16=
EXTT17=
EXTT18=
EXTT19=
EXTT20=
EXTT21=
EXTT22=
EXTT23=
EXTT24=
EXTT25=
EXTT26=
EXTT27=
EXTT28=
EXTT29=
EXTT30=
EXTT31=
EXTT32=
EXTT33=
PLAYORDER=
